<svg width="24" height="24" viewBox="0 0 24 24" fill="none" xmlns="http://www.w3.org/2000/svg">
<path d="M12 22.5C18.0751 22.5 23 17.5751 23 11.5C23 5.42487 18.0751 0.5 12 0.5C5.92487 0.5 1 5.42487 1 11.5C1 17.5751 5.92487 22.5 12 22.5Z" fill="#458BC4"/>
<path d="M8.93949 9.75903C9.41749 9.15803 11.099 8.62553 11.4455 7.78003C11.5275 7.58003 11.6205 7.10953 11.352 7.01103C10.9065 6.90403 9.84799 6.90103 9.45699 6.90403C8.71199 6.91003 8.37899 6.36353 8.29999 6.09803C8.22149 5.83253 8.06799 5.19953 9.83299 3.74403C7.87099 3.45803 6.86699 4.81903 6.73749 5.02503C5.68049 4.76253 4.78349 4.82603 4.03349 5.06603C4.03249 5.06553 4.03149 5.06453 4.03049 5.06403C2.78999 4.46953 2.71249 2.83003 2.71249 2.83003C2.71249 2.83003 1.13999 4.09453 1.52549 6.97653C-0.524007 11.198 0.986493 16.1805 1.86349 17.681C2.66299 19.051 5.60049 23.5 12.5215 23.5C19.4425 23.5 23.0075 17.088 22.4375 15.547C23.2845 13.8615 23.631 11.867 23.459 10.044C23.0575 5.79003 19.0885 2.94803 19.0885 2.94803C19.0885 2.94803 19.137 3.22053 19.21 3.80153C18.162 2.67003 17.298 2.09003 15.84 2.09003C17.8425 3.53353 19.7575 7.49503 19.6015 10.8235C19.151 9.67403 18.534 9.19653 18.534 9.19653C19.0585 13.9915 16.517 17.4395 14.53 17.831C13.043 18.124 10.27 18.002 8.48599 15.9115C9.59499 16.183 11.0985 16.0675 11.995 15.4475C12.5365 15.0725 13.139 14.557 13.716 14.584C14.1655 14.605 14.4345 14.2475 14.0985 13.8625C13.764 13.4775 12.8765 12.7495 11.8465 13.2375C9.01949 14.5765 7.13349 12.597 7.45999 11.4365C7.67049 10.6875 8.37099 10.8095 8.88299 11.279C8.88299 11.279 9.14699 10.4685 8.93949 9.75903Z" fill="#EA9860"/>
</svg>
