<svg width="24" height="24" viewBox="0 0 24 24" fill="none" xmlns="http://www.w3.org/2000/svg">
<path d="M0.5 12C0.5 18.341 5.659 23.5 12 23.5C18.341 23.5 23.5 18.341 23.5 12C23.5 5.659 18.341 0.5 12 0.5C5.659 0.5 0.5 5.659 0.5 12Z" fill="white"/>
<path d="M7.03845 11.406C7.33345 8.9285 9.44445 7 11.9999 7H22.3544C20.4914 3.1565 16.5504 0.5 11.9999 0.5C8.44345 0.5 5.25895 2.1235 3.14795 4.6675L7.03845 11.406Z" fill="#E86C60"/>
<path d="M12 16C14.2091 16 16 14.2091 16 12C16 9.79086 14.2091 8 12 8C9.79086 8 8 9.79086 8 12C8 14.2091 9.79086 16 12 16Z" fill="#43A6DD"/>
<path d="M13.965 16.5965C13.361 16.8555 12.6975 17 12 17C10.153 17 8.5405 15.9905 7.675 14.497L7.67 14.5L2.4945 5.53552C1.237 7.37902 0.5 9.60502 0.5 12C0.5 17.685 4.647 22.4165 10.074 23.3355L13.965 16.5965Z" fill="#72C472"/>
<path d="M14.9871 8C16.2061 8.9125 17.0001 10.3635 17.0001 12C17.0001 12.91 16.7516 13.7615 16.3251 14.497L16.3301 14.5L11.1541 23.4655C11.4336 23.486 11.7151 23.5 12.0001 23.5C18.3416 23.5 23.5001 18.3415 23.5001 12C23.5001 10.594 23.2456 9.2465 22.7816 8H14.9871Z" fill="#EFD358"/>
</svg>
