<svg width="24" height="24" viewBox="0 0 24 24" fill="none" xmlns="http://www.w3.org/2000/svg">
<path d="M12 23C18.0751 23 23 18.0751 23 12C23 5.92487 18.0751 1 12 1C5.92487 1 1 5.92487 1 12C1 18.0751 5.92487 23 12 23Z" fill="#43A6DD"/>
<path d="M12 0.5C5.6585 0.5 0.5 5.6585 0.5 12C0.5 18.3415 5.6585 23.5 12 23.5C18.3415 23.5 23.5 18.3415 23.5 12C23.5 5.6585 18.3415 0.5 12 0.5ZM12 22.5C6.2105 22.5 1.5 17.7895 1.5 12C1.5 6.2105 6.2105 1.5 12 1.5C17.7895 1.5 22.5 6.2105 22.5 12C22.5 17.7895 17.7895 22.5 12 22.5Z" fill="#E6E6E6"/>
<path d="M6 18L13 13L11 11L6 18Z" fill="#E6E6E6"/>
<path d="M11 11L13 13L18 6L11 11Z" fill="#E86C60"/>
</svg>
