<svg width="24" height="24" viewBox="0 0 24 24" fill="none" xmlns="http://www.w3.org/2000/svg">
<path d="M21.259 17.616C20.9524 17.7765 20.6361 17.918 20.312 18.0395C19.2807 18.4255 18.1882 18.622 17.087 18.6195C12.837 18.6195 9.13251 15.6955 9.13251 11.943C9.13799 11.4397 9.27766 10.947 9.53713 10.5157C9.79659 10.0844 10.1664 9.73015 10.6085 9.4895C6.76351 9.651 5.77551 13.658 5.77551 16.0055C5.77551 22.6425 11.8925 23.3155 13.2105 23.3155C14.0332 23.2838 14.8485 23.1461 15.636 22.906L15.7535 22.8665C18.2287 22.0106 20.3389 20.3377 21.737 18.123C21.7799 18.0555 21.799 17.9757 21.7914 17.8962C21.7838 17.8166 21.7499 17.7418 21.6951 17.6837C21.6403 17.6255 21.5676 17.5873 21.4887 17.5751C21.4097 17.5628 21.3289 17.5772 21.259 17.616Z" fill="url(#paint0_linear)"/>
<path opacity="0.35" d="M21.259 17.616C20.9524 17.7765 20.6361 17.918 20.312 18.0395C19.2807 18.4255 18.1882 18.622 17.087 18.6195C12.837 18.6195 9.13251 15.6955 9.13251 11.943C9.13799 11.4397 9.27766 10.947 9.53713 10.5157C9.79659 10.0844 10.1664 9.73015 10.6085 9.4895C6.76351 9.651 5.77551 13.658 5.77551 16.0055C5.77551 22.6425 11.8925 23.3155 13.2105 23.3155C14.0332 23.2838 14.8485 23.1461 15.636 22.906L15.7535 22.8665C18.2287 22.0106 20.3389 20.3377 21.737 18.123C21.7799 18.0555 21.799 17.9757 21.7914 17.8962C21.7838 17.8166 21.7499 17.7418 21.6951 17.6837C21.6403 17.6255 21.5676 17.5873 21.4887 17.5751C21.4097 17.5628 21.3289 17.5772 21.259 17.616Z" fill="url(#paint1_radial)"/>
<path d="M9.99995 22.187C9.19871 21.6896 8.50427 21.038 7.95695 20.27C7.33352 19.4154 6.90455 18.4349 6.70011 17.397C6.49567 16.3592 6.52071 15.2892 6.77349 14.262C7.02626 13.2349 7.50064 12.2755 8.16337 11.451C8.8261 10.6266 9.66114 9.95711 10.61 9.48948C11.0392 9.25819 11.5183 9.13481 12.0059 9.12998C12.4546 9.13366 12.8964 9.2412 13.2966 9.44419C13.6967 9.64718 14.0444 9.9401 14.3125 10.3C14.6754 10.7843 14.8755 11.3713 14.884 11.9765C14.884 11.9575 17.0814 4.82648 7.69695 4.82648C3.75295 4.82298 0.50995 8.56598 0.50995 11.85C0.495072 13.587 0.867429 15.3054 1.59995 16.8805C2.79614 19.4325 4.88789 21.4564 7.47798 22.5679C10.0681 23.6793 12.9761 23.8009 15.65 22.9095C14.7138 23.2046 13.7248 23.2932 12.7511 23.1692C11.7774 23.0451 10.8422 22.7114 10.01 22.191L9.99995 22.187Z" fill="url(#paint2_linear)"/>
<path opacity="0.41" d="M9.99995 22.187C9.19871 21.6896 8.50427 21.038 7.95695 20.27C7.33352 19.4154 6.90455 18.4349 6.70011 17.397C6.49567 16.3592 6.52071 15.2892 6.77349 14.262C7.02626 13.2349 7.50064 12.2755 8.16337 11.451C8.8261 10.6266 9.66114 9.95711 10.61 9.48948C11.0392 9.25819 11.5183 9.13481 12.0059 9.12998C12.4546 9.13366 12.8964 9.2412 13.2966 9.44419C13.6967 9.64718 14.0444 9.9401 14.3125 10.3C14.6754 10.7843 14.8755 11.3713 14.884 11.9765C14.884 11.9575 17.0814 4.82648 7.69695 4.82648C3.75295 4.82298 0.50995 8.56598 0.50995 11.85C0.495072 13.587 0.867429 15.3054 1.59995 16.8805C2.79614 19.4325 4.88789 21.4564 7.47798 22.5679C10.0681 23.6793 12.9761 23.8009 15.65 22.9095C14.7138 23.2046 13.7248 23.2932 12.7511 23.1692C11.7774 23.0451 10.8422 22.7114 10.01 22.191L9.99995 22.187Z" fill="url(#paint3_radial)"/>
<path d="M14.185 13.8715C14.1125 13.966 13.8885 14.0965 13.8885 14.38C13.9015 14.5145 13.9469 14.6439 14.0207 14.757C14.0946 14.8702 14.1947 14.9639 14.3125 15.03C15.6045 15.93 18.04 15.8095 18.0465 15.8095C19.0036 15.8072 19.9426 15.5482 20.7655 15.0595C21.5959 14.5748 22.2851 13.8814 22.7648 13.0481C23.2445 12.2148 23.4979 11.2705 23.5 10.309C23.5091 8.92777 23.1579 7.56803 22.481 6.364C20.577 2.64 16.468 0.5 12 0.5C8.97821 0.499693 6.07773 1.68876 3.92571 3.81008C1.77369 5.93141 0.543093 8.81452 0.5 11.836C0.543 8.5535 3.806 5.9 7.687 5.9C8.99697 5.9134 10.287 6.22277 11.4605 6.805C12.6252 7.38384 13.5904 8.29762 14.232 9.429C14.6584 10.2475 14.8826 11.1561 14.886 12.079C14.839 12.7336 14.5945 13.3586 14.185 13.8715Z" fill="url(#paint4_radial)"/>
<path d="M14.185 13.8715C14.1125 13.966 13.8885 14.0965 13.8885 14.38C13.9015 14.5145 13.9469 14.6439 14.0207 14.757C14.0946 14.8702 14.1947 14.9639 14.3125 15.03C15.6045 15.93 18.04 15.8095 18.0465 15.8095C19.0036 15.8072 19.9426 15.5482 20.7655 15.0595C21.5959 14.5748 22.2851 13.8814 22.7648 13.0481C23.2445 12.2148 23.4979 11.2705 23.5 10.309C23.5091 8.92777 23.1579 7.56803 22.481 6.364C20.577 2.64 16.468 0.5 12 0.5C8.97821 0.499693 6.07773 1.68876 3.92571 3.81008C1.77369 5.93141 0.543093 8.81452 0.5 11.836C0.543 8.5535 3.806 5.9 7.687 5.9C8.99697 5.9134 10.287 6.22277 11.4605 6.805C12.6252 7.38384 13.5904 8.29762 14.232 9.429C14.6584 10.2475 14.8826 11.1561 14.886 12.079C14.839 12.7336 14.5945 13.3586 14.185 13.8715Z" fill="url(#paint5_radial)"/>
<defs>
<linearGradient id="paint0_linear" x1="5.77551" y1="16.4025" x2="21.793" y2="16.4025" gradientUnits="userSpaceOnUse">
<stop stop-color="#0C59A4"/>
<stop offset="1" stop-color="#114A8B"/>
</linearGradient>
<radialGradient id="paint1_radial" cx="0" cy="0" r="1" gradientUnits="userSpaceOnUse" gradientTransform="translate(14.6245 16.5303) scale(8.569 8.14055)">
<stop offset="0.72" stop-opacity="0"/>
<stop offset="0.95" stop-opacity="0.53"/>
<stop offset="1"/>
</radialGradient>
<linearGradient id="paint2_linear" x1="14.2269" y1="9.45898" x2="4.21995" y2="20.3595" gradientUnits="userSpaceOnUse">
<stop stop-color="#1B9DE2"/>
<stop offset="0.16" stop-color="#1595DF"/>
<stop offset="0.67" stop-color="#0680D7"/>
<stop offset="1" stop-color="#0078D4"/>
</linearGradient>
<radialGradient id="paint3_radial" cx="0" cy="0" r="1" gradientUnits="userSpaceOnUse" gradientTransform="translate(6.8422 18.3771) rotate(-81.3844) scale(12.8852 10.41)">
<stop offset="0.76" stop-opacity="0"/>
<stop offset="0.95" stop-opacity="0.5"/>
<stop offset="1"/>
</radialGradient>
<radialGradient id="paint4_radial" cx="0" cy="0" r="1" gradientUnits="userSpaceOnUse" gradientTransform="translate(2.82387 4.75492) rotate(92.2906) scale(18.2005 38.7634)">
<stop stop-color="#35C1F1"/>
<stop offset="0.11" stop-color="#34C1ED"/>
<stop offset="0.23" stop-color="#2FC2DF"/>
<stop offset="0.31" stop-color="#2BC3D2"/>
<stop offset="0.67" stop-color="#36C752"/>
</radialGradient>
<radialGradient id="paint5_radial" cx="0" cy="0" r="1" gradientUnits="userSpaceOnUse" gradientTransform="translate(22.0677 7.45221) rotate(73.7398) scale(8.745 7.11143)">
<stop stop-color="#66EB6E"/>
<stop offset="1" stop-color="#66EB6E" stop-opacity="0"/>
</radialGradient>
</defs>
</svg>
