<svg width="24" height="24" viewBox="0 0 24 24" fill="none" xmlns="http://www.w3.org/2000/svg">
<path d="M12 0.5C5.6485 0.5 0.5 5.6485 0.5 12C0.5 18.3515 5.6485 23.5 12 23.5C18.3515 23.5 23.5 18.3515 23.5 12C23.5 5.6485 18.3515 0.5 12 0.5ZM12 20.5C8.6865 20.5 6 16.6945 6 12C6 7.3055 8.6865 3.5 12 3.5C15.3135 3.5 18 7.3055 18 12C18 16.6945 15.3135 20.5 12 20.5Z" fill="#C94F49"/>
<path d="M15 22C10.0295 22 6 17.523 6 12C6 6.477 10.0295 2 15 2C16.7655 2 18.4075 2.5735 19.7975 3.5495C17.7475 1.6575 15.0095 0.5 12 0.5C5.6485 0.5 0.5 5.6485 0.5 12C0.5 18.3515 5.6485 23.5 12 23.5C15.0095 23.5 17.7475 22.3425 19.7975 20.4505C18.4075 21.4265 16.7655 22 15 22Z" fill="#E86C60"/>
</svg>
