<svg fill="white" xmlns="http://www.w3.org/2000/svg" width="400" height="400"><path d="M134.092 2.054C-11.527 30.618-49.528 224.556 74.616 305.597c53.035 34.622 132.562 35.426 180.231 1.823l4.846-3.416 45.142 45.171C352.001 396.372 356.662 400 370.126 400c22.086 0 36.338-22.99 27.234-43.929-1.452-3.339-22.987-26.326-47.855-51.082l-45.216-45.01 6.226-10.34c72.24-119.966-38.042-274.73-176.423-247.585m60.248 63.372c74.774 20.414 100.774 120.047 45.453 174.179-66.354 64.928-178.484 18.026-177.909-74.416.43-69.182 65.354-118.082 132.456-99.763" fill-rule="evenodd"/></svg>
